<mxfile host="app.diagrams.net" modified="2023-12-16T12:36:10.145Z" agent="Mozilla/5.0 (Windows NT 10.0; Win64; x64) AppleWebKit/537.36 (KHTML, like Gecko) Chrome/120.0.0.0 Safari/537.36" version="22.1.9" etag="9NWxzZ1DERN69uI9U-0O" type="github">
  <diagram name="Page-1" id="KPqWFKN6nVDsSa3kNAQu">
    <mxGraphModel>
      <root>
        <mxCell id="0" />
        <mxCell id="1" parent="0" />
      </root>
    </mxGraphModel>
  </diagram>
</mxfile>
